<?xml version="1.0" encoding="UTF-8"?>
<!--
  PULSE app icon master — v6.
  GENERATED FILE. Do not hand-edit; regenerate via:
      node scripts/build-icon-svg.cjs

  Reproduces the in-app <BracketLabel tone="accent">PULSE</BracketLabel>
  primitive at icon scale. Wordmark sits in the upper third, rose floor
  glow occupies the lower portion — same vertical separation as the boot
  screen (BracketLabel in the top HUD strip, glow rising from below).

  Spec carried over from components/design/primitives.tsx + tokens.ts:
    font:        Geist Mono Medium (weight 500)
    case:        UPPERCASE
    tracking:    0.12em
    letters:     COLORS.accent  #E11D48
    brackets:    same rose at fill-opacity 0.7, translateY(-6.3)

  Wordmark bbox at fontSize=180:
    width  812.88
    height 154.80
  Centered on 1024×1024 canvas (verticalAnchor 0.38)
  via translate(81.80 453.02).
-->
<svg xmlns="http://www.w3.org/2000/svg" viewBox="0 0 1024 1024" width="1024" height="1024">
  <!-- Canvas -->
  <rect width="1024" height="1024" fill="#050505"/>

  <!-- Rose floor glow — radial from bottom center.
       Same gradient pattern as components/design/tokens.ts → SHADOW
       and the boot screen's GlowBg(origin="bottom"). -->
  <defs>
    <radialGradient id="floorGlow" cx="0.5" cy="1.0" r="0.78">
      <stop offset="0%"   stop-color="#E11D48" stop-opacity="0.62"/>
      <stop offset="35%"  stop-color="#E11D48" stop-opacity="0.24"/>
      <stop offset="100%" stop-color="#E11D48" stop-opacity="0"/>
    </radialGradient>
  </defs>
  <rect width="1024" height="1024" fill="url(#floorGlow)"/>

  <!-- [PULSE] wordmark — Geist Mono Medium outline paths.
       Brackets: rose at 0.7 opacity, raised slightly.
       Letters:  rose at full opacity, 0.12em tracking. -->
  <g transform="translate(81.80 453.02)">
    <path d="M84.24-1.98L84.24 13.50L23.76 13.50L23.76-141.30L84.24-141.30L84.24-125.82L41.76-125.82L41.76-1.98" fill="#E11D48" fill-opacity="0.7"/>
    <path d="M151.38 0L132.48 0L132.48-127.80L172.08-127.80Q185.40-127.80 195.39-122.94Q205.38-118.08 210.87-109.17Q216.36-100.26 216.36-88.02Q216.36-75.78 210.87-66.87Q205.38-57.96 195.39-53.19Q185.40-48.42 172.08-48.42L151.38-48.42L151.38 0M151.38-109.98L151.38-66.24L170.10-66.24Q183.78-66.24 190.26-71.82Q196.74-77.40 196.74-88.02Q196.74-98.82 190.26-104.40Q183.78-109.98 170.10-109.98L151.38-109.98M300.60 2.88Q280.26 2.88 268.65-9.63Q257.04-22.14 257.04-44.46L257.04-127.80L275.94-127.80L275.94-43.74Q275.94-29.70 282.24-22.23Q288.54-14.76 300.60-14.76Q312.66-14.76 318.96-22.23Q325.26-29.70 325.26-43.74L325.26-127.80L344.16-127.80L344.16-44.46Q344.16-22.14 332.55-9.63Q320.94 2.88 300.60 2.88M473.76 0L393.84 0L393.84-127.80L412.74-127.80L412.74-17.82L473.76-17.82L473.76 0M561.42 2.88Q547.56 2.88 537.21-2.70Q526.86-8.28 520.74-18.27Q514.62-28.26 513.54-41.58L532.98-42.84Q534.78-29.16 542.34-21.96Q549.90-14.76 562.14-14.76Q573.84-14.76 580.23-19.35Q586.62-23.94 586.62-32.58Q586.62-38.16 584.01-42.30Q581.40-46.44 574.29-50.04Q567.18-53.64 553.68-57.42Q540.54-61.02 532.35-65.61Q524.16-70.20 520.29-76.95Q516.42-83.70 516.42-93.60Q516.42-110.16 527.85-120.42Q539.28-130.68 559.44-130.68Q579.42-130.68 590.76-119.25Q602.10-107.82 603.90-89.28L584.46-88.20Q583.02-99.18 576.72-106.11Q570.42-113.04 558.90-113.04Q548.28-113.04 542.07-108Q535.86-102.96 535.86-94.50Q535.86-88.92 538.38-85.32Q540.90-81.72 547.20-78.84Q553.50-75.96 564.84-72.90Q580.14-68.76 589.14-63.36Q598.14-57.96 602.10-50.49Q606.06-43.02 606.06-32.58Q606.06-21.96 600.48-13.95Q594.90-5.94 584.91-1.53Q574.92 2.88 561.42 2.88M731.16 0L651.24 0L651.24-127.80L729.72-127.80L729.72-109.98L670.14-109.98L670.14-72.72L727.56-72.72L727.56-55.44L670.14-55.44L670.14-17.82L731.16-17.82" fill="#E11D48"/>
    <path d="M836.64 13.50L776.16 13.50L776.16-1.98L818.64-1.98L818.64-125.82L776.16-125.82L776.16-141.30L836.64-141.30" fill="#E11D48" fill-opacity="0.7"/>
  </g>
</svg>
