<?xml version="1.0" encoding="UTF-8"?>
<!--
  PULSE iOS LaunchScreen splash master — v5.
  GENERATED FILE. Do not hand-edit; regenerate via:
      node scripts/build-icon-svg.cjs

  Same `[pulse]` wordmark as the v5 icon, scaled to a 2732 canvas.
  Wordmark bbox at fontSize=640:
    width  2519.04
    height 576.00
  Centered via translate(22.00, 1558.00).
-->
<svg xmlns="http://www.w3.org/2000/svg" viewBox="0 0 2732 2732" width="2732" height="2732">
  <!-- Canvas -->
  <rect width="2732" height="2732" fill="#050505"/>

  <!-- Rose floor glow — bigger reach for the splash. -->
  <defs>
    <radialGradient id="splashFloorGlow" cx="0.5" cy="1.0" r="0.7">
      <stop offset="0%"   stop-color="#E11D48" stop-opacity="0.55"/>
      <stop offset="35%"  stop-color="#E11D48" stop-opacity="0.22"/>
      <stop offset="100%" stop-color="#E11D48" stop-opacity="0"/>
    </radialGradient>
  </defs>
  <rect width="2732" height="2732" fill="url(#splashFloorGlow)"/>

  <!-- [pulse] wordmark — Geist Mono Medium outline paths, centered. -->
  <g transform="translate(22.00 1558.00)">
    <path d="M299.52 15.36L299.52 70.40L84.48 70.40L84.48-480L299.52-480L299.52-424.96L148.48-424.96L148.48 15.36L299.52 15.36M494.72 96L430.08 96L430.08-340.48L491.52-340.48L492.16-285.44Q507.52-316.16 534.08-332.16Q560.64-348.16 595.84-348.16Q645.12-348.16 676.48-323.52Q707.84-298.88 723.20-258.56Q738.56-218.24 738.56-170.24Q738.56-122.24 723.20-81.92Q707.84-41.60 676.48-16.96Q645.12 7.68 595.84 7.68Q561.92 7.68 535.36-6.40Q508.80-20.48 494.72-45.44L494.72 96M583.68-51.84Q624.64-51.84 647.68-82.56Q670.72-113.28 670.72-170.24Q670.72-227.20 647.68-257.92Q624.64-288.64 583.68-288.64Q543.36-288.64 519.04-258.88Q494.72-229.12 494.72-170.24Q494.72-111.36 518.72-81.60Q542.72-51.84 583.68-51.84M930.56 7.68Q881.28 7.68 851.84-25.60Q822.40-58.88 822.40-120.32L822.40-340.48L887.04-340.48L887.04-136.96Q887.04-90.88 903.04-69.76Q919.04-48.64 951.68-48.64Q987.52-48.64 1008.64-72.32Q1029.76-96 1029.76-139.52L1029.76-340.48L1094.40-340.48L1094.40 0L1033.60 0L1033.60-56.96Q1005.44 7.68 930.56 7.68M1500.16 0L1187.84 0L1187.84-54.40L1320.96-54.40L1320.96-357.76Q1320.96-377.60 1310.08-388.80Q1299.20-400 1278.72-400L1200.64-400L1200.64-454.40L1285.76-454.40Q1385.60-454.40 1385.60-354.56L1385.60-54.40L1500.16-54.40L1500.16 0M1733.12 7.68Q1687.68 7.68 1655.04-7.68Q1622.40-23.04 1604.48-48.96Q1586.56-74.88 1584-106.88L1649.92-110.72Q1655.04-82.56 1675.52-66.56Q1696-50.56 1733.76-50.56Q1768.32-50.56 1787.20-60.16Q1806.08-69.76 1806.08-90.24Q1806.08-103.04 1799.68-111.68Q1793.28-120.32 1775.68-126.40Q1758.08-132.48 1724.16-138.88Q1673.60-147.84 1644.80-161.60Q1616-175.36 1604.16-195.20Q1592.32-215.04 1592.32-243.84Q1592.32-288.64 1625.92-318.40Q1659.52-348.16 1724.80-348.16Q1770.24-348.16 1800-332.80Q1829.76-317.44 1846.08-292.16Q1862.40-266.88 1866.88-237.44L1800.96-233.60Q1795.84-258.56 1776.32-274.24Q1756.80-289.92 1724.80-289.92Q1690.24-289.92 1674.56-276.48Q1658.88-263.04 1658.88-243.84Q1658.88-220.80 1676.80-210.56Q1694.72-200.32 1740.80-192Q1792.64-183.04 1821.12-170.24Q1849.60-157.44 1860.80-138.24Q1872-119.04 1872-90.88Q1872-44.80 1833.60-18.56Q1795.20 7.68 1733.12 7.68M2115.20 7.68Q2067.20 7.68 2031.68-14.40Q1996.16-36.48 1976.64-76.48Q1957.12-116.48 1957.12-170.24Q1957.12-224 1976.32-264Q1995.52-304 2030.72-326.08Q2065.92-348.16 2113.28-348.16Q2158.08-348.16 2192.96-327.04Q2227.84-305.92 2247.36-265.60Q2266.88-225.28 2266.88-168.96L2266.88-151.04L2024.32-151.04Q2027.52-101.76 2051.52-76.80Q2075.52-51.84 2115.84-51.84Q2145.92-51.84 2165.76-65.92Q2185.60-80 2193.28-103.68L2260.48-99.20Q2245.76-50.56 2208-21.44Q2170.24 7.68 2115.20 7.68M2024.96-202.88L2196.48-202.88Q2193.28-246.40 2170.24-267.52Q2147.20-288.64 2112.64-288.64Q2076.80-288.64 2053.76-266.88Q2030.72-245.12 2024.96-202.88M2603.52 70.40L2388.48 70.40L2388.48 15.36L2539.52 15.36L2539.52-424.96L2388.48-424.96L2388.48-480L2603.52-480" fill="#FAFAFA"/>
  </g>
</svg>
