<?xml version="1.0" encoding="UTF-8"?>
<!--
  PULSE iOS LaunchScreen splash master — v6.
  GENERATED FILE. Do not hand-edit; regenerate via:
      node scripts/build-icon-svg.cjs

  Same [PULSE] BracketLabel wordmark as the v6 icon, scaled to 2732.
  Wordmark bbox at fontSize=480:
    width  2167.68
    height 412.80
  Centered (verticalAnchor 0.38) via translate(218.80 1208.56).
-->
<svg xmlns="http://www.w3.org/2000/svg" viewBox="0 0 2732 2732" width="2732" height="2732">
  <!-- Canvas -->
  <rect width="2732" height="2732" fill="#050505"/>

  <!-- Rose floor glow — bigger reach for the splash. -->
  <defs>
    <radialGradient id="splashFloorGlow" cx="0.5" cy="1.0" r="0.7">
      <stop offset="0%"   stop-color="#E11D48" stop-opacity="0.55"/>
      <stop offset="35%"  stop-color="#E11D48" stop-opacity="0.22"/>
      <stop offset="100%" stop-color="#E11D48" stop-opacity="0"/>
    </radialGradient>
  </defs>
  <rect width="2732" height="2732" fill="url(#splashFloorGlow)"/>

  <!-- [PULSE] wordmark — Geist Mono Medium outline paths.
       Brackets: rose at 0.7 opacity, raised slightly.
       Letters:  rose at full opacity, 0.12em tracking. -->
  <g transform="translate(218.80 1208.56)">
    <path d="M224.64-5.28L224.64 36L63.36 36L63.36-376.80L224.64-376.80L224.64-335.52L111.36-335.52L111.36-5.28" fill="#E11D48" fill-opacity="0.7"/>
    <path d="M403.68 0L353.28 0L353.28-340.80L458.88-340.80Q494.40-340.80 521.04-327.84Q547.68-314.88 562.32-291.12Q576.96-267.36 576.96-234.72Q576.96-202.08 562.32-178.32Q547.68-154.56 521.04-141.84Q494.40-129.12 458.88-129.12L403.68-129.12L403.68 0M403.68-293.28L403.68-176.64L453.60-176.64Q490.08-176.64 507.36-191.52Q524.64-206.40 524.64-234.72Q524.64-263.52 507.36-278.40Q490.08-293.28 453.60-293.28L403.68-293.28M801.60 7.68Q747.36 7.68 716.40-25.68Q685.44-59.04 685.44-118.56L685.44-340.80L735.84-340.80L735.84-116.64Q735.84-79.20 752.64-59.28Q769.44-39.36 801.60-39.36Q833.76-39.36 850.56-59.28Q867.36-79.20 867.36-116.64L867.36-340.80L917.76-340.80L917.76-118.56Q917.76-59.04 886.80-25.68Q855.84 7.68 801.60 7.68M1263.36 0L1050.24 0L1050.24-340.80L1100.64-340.80L1100.64-47.52L1263.36-47.52L1263.36 0M1497.12 7.68Q1460.16 7.68 1432.56-7.20Q1404.96-22.08 1388.64-48.72Q1372.32-75.36 1369.44-110.88L1421.28-114.24Q1426.08-77.76 1446.24-58.56Q1466.40-39.36 1499.04-39.36Q1530.24-39.36 1547.28-51.60Q1564.32-63.84 1564.32-86.88Q1564.32-101.76 1557.36-112.80Q1550.40-123.84 1531.44-133.44Q1512.48-143.04 1476.48-153.12Q1441.44-162.72 1419.60-174.96Q1397.76-187.20 1387.44-205.20Q1377.12-223.20 1377.12-249.60Q1377.12-293.76 1407.60-321.12Q1438.08-348.48 1491.84-348.48Q1545.12-348.48 1575.36-318Q1605.60-287.52 1610.40-238.08L1558.56-235.20Q1554.72-264.48 1537.92-282.96Q1521.12-301.44 1490.40-301.44Q1462.08-301.44 1445.52-288Q1428.96-274.56 1428.96-252Q1428.96-237.12 1435.68-227.52Q1442.40-217.92 1459.20-210.24Q1476-202.56 1506.24-194.40Q1547.04-183.36 1571.04-168.96Q1595.04-154.56 1605.60-134.64Q1616.16-114.72 1616.16-86.88Q1616.16-58.56 1601.28-37.20Q1586.40-15.84 1559.76-4.08Q1533.12 7.68 1497.12 7.68M1949.76 0L1736.64 0L1736.64-340.80L1945.92-340.80L1945.92-293.28L1787.04-293.28L1787.04-193.92L1940.16-193.92L1940.16-147.84L1787.04-147.84L1787.04-47.52L1949.76-47.52" fill="#E11D48"/>
    <path d="M2231.04 36L2069.76 36L2069.76-5.28L2183.04-5.28L2183.04-335.52L2069.76-335.52L2069.76-376.80L2231.04-376.80" fill="#E11D48" fill-opacity="0.7"/>
  </g>
</svg>
